Coordinates
version=1
nRows=7
nColumns=63
inDegrees=yes

Units are S.I. units (second, meters, Newtons, ...)
If the header above contains a line with 'inDegrees', this indicates whether rotational values are in degrees (yes) or radians (no).

endheader
time	pelvis_tilt	pelvis_list	pelvis_rotation	pelvis_tx	pelvis_ty	pelvis_tz	hip_flexion_r	hip_adduction_r	hip_rotation_r	knee_angle_r	knee_angle_r_beta	ankle_angle_r	subtalar_angle_r	mtp_angle_r	hip_flexion_l	hip_adduction_l	hip_rotation_l	knee_angle_l	knee_angle_l_beta	ankle_angle_l	subtalar_angle_l	mtp_angle_l	L5_S1_Flex_Ext	L5_S1_Lat_Bending	L5_S1_axial_rotation	L4_L5_Flex_Ext	L4_L5_Lat_Bending	L4_L5_axial_rotation	L3_L4_Flex_Ext	L3_L4_Lat_Bending	L3_L4_axial_rotation	L2_L3_Flex_Ext	L2_L3_Lat_Bending	L2_L3_axial_rotation	L1_L2_Flex_Ext	L1_L2_Lat_Bending	L1_L2_axial_rotation	L1_T12_Flex_Ext	L1_T12_Lat_Bending	L1_T12_axial_rotation	Abs_r3	Abs_r2	Abs_r1	Abs_t1	Abs_t2	neck_flexion	neck_bending	neck_rotation	arm_flex_r	arm_add_r	arm_rot_r	elbow_flex_r	pro_sup_r	wrist_flex_r	wrist_dev_r	arm_flex_l	arm_add_l	arm_rot_l	elbow_flex_l	pro_sup_l	wrist_flex_l	wrist_dev_l
      3.75000000	    -41.38545807	     -0.89398447	     -1.31582854	     -0.18526578	      1.09301697	     -0.01029821	     83.81659761	     -2.00513642	     -5.21409827	     47.69524997	      0.83243915	      9.85525393	      0.39913585	      0.00000000	    109.22858274	     -4.57873155	      7.99756011	    110.94803522	      1.93640851	     15.91301154	     -0.94612946	      0.00000000	     -0.07607698	      0.04102156	      0.38547329	     -0.14128255	      0.05455868	      0.40956537	     -0.12498686	      0.09973982	      0.40956537	     -0.08694838	      0.09973982	      0.33728913	     -0.07064508	      0.08365117	      0.31319705	     -0.04347038	      0.06354240	      0.28910497	     -0.54341023	      0.46404411	      2.14388680	      0.00000000	      0.00000000	     -0.00000000	      0.00000000	     -0.00000000	     61.04722210	     -5.72746372	     19.10448016	     32.19929430	     33.01811832	      0.00000000	      5.00000469	     64.51134860	     -3.59658539	     24.12072190	     24.31042576	     42.49441896	      0.00000000	      5.00000469
      3.75800000	    -41.36148690	     -0.39543643	     -1.44781703	     -0.18500663	      1.09320888	     -0.01011596	     82.93097604	     -2.04037849	     -5.16085299	     46.83651535	      0.81745140	      9.57902274	      0.57053487	      0.00000000	    110.15436675	     -4.76685496	      7.61816948	    111.54800951	      1.94688004	     15.83143778	     -1.02607857	      0.00000000	     -0.07708024	     -0.02989768	      0.39536994	     -0.14314572	     -0.03976392	      0.42008056	     -0.12663513	     -0.07269322	      0.42008056	     -0.08809501	     -0.07269322	      0.34594870	     -0.07157671	     -0.06096735	      0.32123808	     -0.04404365	     -0.04631151	      0.29652746	     -0.55057645	     -0.33820855	      2.19892901	      0.00000000	      0.00000000	     -0.00000000	      0.00000000	     -0.00000000	     61.02741384	     -5.55127053	     19.04326080	     31.97642465	     32.99006584	      0.00000000	      5.00000464	     64.58790486	     -3.74014107	     24.41284944	     24.31658059	     42.57472086	      0.00000000	      5.00000464
      3.76700000	    -41.33356368	      0.42938576	     -1.60663110	     -0.18480945	      1.09337004	     -0.00946258	     82.20683714	     -2.09128073	     -4.66370207	     46.23414285	      0.80693802	      9.39972464	      0.81842626	      0.00000000	    110.99355052	     -5.09901080	      6.87218969	    112.04506869	      1.95555536	     15.55649752	     -1.67012612	      0.00000000	     -0.07659485	     -0.14756491	      0.42005575	     -0.14224430	     -0.19626133	      0.44630923	     -0.12583768	     -0.35878931	      0.44630923	     -0.08754025	     -0.35878931	      0.36754878	     -0.07112598	     -0.30091436	      0.34129530	     -0.04376630	     -0.22857804	      0.31504181	     -0.54710936	     -1.66928373	      2.33622406	      0.00000000	      0.00000000	     -0.00000000	      0.00000000	     -0.00000000	     60.80752369	     -5.08042382	     17.79702183	     31.81161798	     32.30405064	      0.00000000	      5.00000403	     65.27836794	     -4.44257344	     28.67678037	     23.88687280	     43.69323103	      0.00000000	      5.00000403
      3.77500000	    -41.33246992	      0.88816453	     -1.65391234	     -0.18462896	      1.09365826	     -0.00932706	     81.42176283	     -2.25267788	     -4.74804525	     45.58727905	      0.79564812	      9.15260016	      0.86540795	      0.00000000	    111.84926505	     -5.19022125	      6.53332402	    112.43969407	      1.96244287	     15.78598134	     -1.60782243	      0.00000000	     -0.07670422	     -0.21477594	      0.41193288	     -0.14244741	     -0.28565201	      0.43767868	     -0.12601737	     -0.52220623	      0.43767868	     -0.08766526	     -0.52220623	      0.36044127	     -0.07122754	     -0.43797111	      0.33469546	     -0.04382879	     -0.33268794	      0.30894966	     -0.54789060	     -2.42958844	      2.29104709	      0.00000000	      0.00000000	     -0.00000000	      0.00000000	     -0.00000000	     60.79296574	     -4.92160247	     17.85233505	     31.67492068	     32.30254081	      0.00000000	      5.00000399	     65.36818534	     -4.53356897	     28.69881219	     23.84771469	     43.70293681	      0.00000000	      5.00000399
      3.78300000	    -41.32602260	      1.60370099	     -1.80334618	     -0.18449378	      1.09390571	     -0.00874919	     80.79550581	     -2.33381411	     -4.37532987	     45.18854811	      0.78868895	      8.92472668	      0.92286494	      0.00000000	    112.59501793	     -5.50304361	      5.95875103	    112.74778563	      1.96782008	     16.24187447	     -1.50258355	      0.00000000	     -0.07726373	     -0.31822530	      0.42484142	     -0.14348647	     -0.42323965	      0.45139401	     -0.12693658	     -0.77373299	      0.45139401	     -0.08830472	     -0.77373299	      0.37173625	     -0.07174710	     -0.64892503	      0.34518366	     -0.04414850	     -0.49293099	      0.31863107	     -0.55188710	     -3.59982821	      2.36284055	      0.00000000	      0.00000000	     -0.00000000	      0.00000000	     -0.00000000	     60.76704951	     -4.64930808	     17.72888548	     31.42096065	     32.18766690	      0.00000000	      5.00000389	     65.58153203	     -4.66810789	     28.93172008	     23.68175122	     43.77036748	      0.00000000	      5.00000389
      3.79200000	    -41.33312128	      1.86641554	     -1.82565805	     -0.18429896	      1.09401252	     -0.00873092	     80.18248612	     -2.44994813	     -4.41612311	     44.96877981	      0.78485327	      8.77909599	      0.93805150	      0.00000000	    113.45256628	     -5.50757321	      5.80542985	    113.04609288	      1.97302653	     16.49081266	     -1.54115909	      0.00000000	     -0.07515181	     -0.35805796	      0.41223462	     -0.13956442	     -0.47621709	      0.43799928	     -0.12346690	     -0.87058213	      0.43799928	     -0.08589100	     -0.87058213	      0.36070529	     -0.06978597	     -0.73015180	      0.33494063	     -0.04294174	     -0.55463178	      0.30917596	     -0.53680185	     -4.05042328	      2.29272529	      0.00000000	      0.00000000	     -0.00000000	      0.00000000	     -0.00000000	     60.74836184	     -4.52473510	     17.71639710	     31.39067502	     32.17437590	      0.00000000	      5.00000388	     65.64558178	     -4.73205837	     28.95081288	     23.65234076	     43.77713989	      0.00000000	      5.00000388
      3.80000000	    -41.33503493	      2.47135324	     -1.96810218	     -0.18421751	      1.09449728	     -0.00804532	     79.55066565	     -2.55057123	     -4.31179239	     44.56617732	      0.77782653	      8.57334443	      0.94922795	      0.00000000	    114.06434264	     -5.85705269	      5.22835403	    113.05593943	      1.97319838	     17.08894474	     -1.59940637	      0.00000000	     -0.07971779	     -0.44885279	      0.41847704	     -0.14804391	     -0.59697421	      0.44463186	     -0.13096836	     -1.09134067	      0.44463186	     -0.09110947	     -1.09134067	      0.36616741	     -0.07402594	     -0.91530061	      0.34001260	     -0.04555075	     -0.69527297	      0.31385778	     -0.56941622	     -5.07751254	      2.32744376	      0.00000000	      0.00000000	     -0.00000000	      0.00000000	     -0.00000000	     60.69105361	     -4.22929466	     17.50600722	     31.20216939	     32.09025510	      0.00000000	      5.00000383	     65.84034865	     -4.88699195	     29.09270261	     23.58639706	     43.82113152	      0.00000000	      5.00000383
